<svg xmlns="http://www.w3.org/2000/svg" width="256" height="256" viewBox="0 0 256 256">
  <defs>
    <linearGradient id="bg" x1="0%" y1="0%" x2="100%" y2="100%">
      <stop offset="0%" stop-color="#0f172a"/>
      <stop offset="100%" stop-color="#1d4ed8"/>
    </linearGradient>
    <linearGradient id="ship" x1="0%" y1="0%" x2="0%" y2="100%">
      <stop offset="0%" stop-color="#38bdf8"/>
      <stop offset="100%" stop-color="#0ea5e9"/>
    </linearGradient>
  </defs>

  <rect x="14" y="14" width="228" height="228" rx="52" fill="url(#bg)"/>
  <rect x="40" y="166" width="176" height="20" rx="10" fill="#0b1220" opacity="0.6"/>

  <rect x="56" y="92" width="144" height="62" rx="16" fill="url(#ship)"/>
  <rect x="72" y="74" width="112" height="18" rx="9" fill="#7dd3fc"/>

  <rect x="70" y="106" width="24" height="16" rx="4" fill="#e0f2fe"/>
  <rect x="102" y="106" width="24" height="16" rx="4" fill="#e0f2fe"/>
  <rect x="134" y="106" width="24" height="16" rx="4" fill="#e0f2fe"/>
  <rect x="166" y="106" width="20" height="16" rx="4" fill="#e0f2fe"/>

  <path d="M54 196c14 0 14 8 28 8s14-8 28-8 14 8 28 8 14-8 28-8 14 8 28 8" stroke="#93c5fd" stroke-width="8" fill="none" stroke-linecap="round"/>
</svg>
